<?xml version="1.0" encoding="UTF-8"?>
<svg width="345px" height="158px" viewBox="0 0 345 158" version="1.1" xmlns="http://www.w3.org/2000/svg" xmlns:xlink="http://www.w3.org/1999/xlink">
    <title>Group 24</title>
    <defs>
        <polygon id="path-1" points="0 154 345 154 345 0 0 0"></polygon>
    </defs>
    <g id="Page-1" stroke="none" stroke-width="1" fill="none" fill-rule="evenodd">
        <g id="Extra-Small-Devices:-Phones---2-Col-Copy" transform="translate(-15.000000, -113.000000)">
            <g id="Group-24" transform="translate(15.000000, 114.000000)">
                <path d="M26.1579252,96.1720345 C28.2632391,89.5470857 30.1600343,82.8060245 33.4729851,76.737107 C37.0306837,70.2200936 44.119513,63.2091937 52.1655958,64.1896077 C61.1117708,65.2804101 63.925565,77.9162203 66.588002,84.9164902 C68.0516581,88.7670066 69.5161192,92.617523 70.9797753,96.4680394 C56.0388902,96.5162833 41.0980052,96.4075301 26.1579252,96.1720345 Z M90.078152,96.5890579 C90.0531942,71.657598 89.2368316,46.7375857 87.6016911,21.8551873 C87.3706299,18.3358366 85.0519668,16.2008401 81.6713883,15.8320606 C59.730234,13.4386731 37.7898849,11.0452857 15.8487306,8.65189821 C12.017301,8.23405708 7.54904402,7.00669987 4.20308442,9.63967137 C0.768564771,12.3429645 0.997210711,16.6857321 1.00606672,20.657267 C1.03343982,31.9814976 1.06000784,43.3065458 1.08657585,54.631594 C1.10428786,62.3816884 12.9656985,62.3964069 12.9471814,54.631594 C12.9318847,47.9927445 12.9157829,41.3538949 12.9004861,34.7150453 C12.8932403,31.591458 12.8859945,28.467053 12.8779436,25.342648 C12.8755283,24.1725293 12.7000184,21.9255089 12.6694249,20.0963296 C14.2256665,20.3064767 15.8479255,20.6989694 17.0032316,20.8248941 C20.082706,21.1601482 23.1621803,21.4962201 26.2416547,21.8322919 C32.4006035,22.5044355 38.5595522,23.1757615 44.7185009,23.8479052 C55.1685865,24.9877692 65.6186721,26.1276333 76.0695627,27.2674974 C77.1741481,45.3785799 77.8592808,63.5092871 78.1112744,81.6481712 C76.8327893,78.3389676 75.5333719,75.0379409 74.1993356,71.7540857 C70.1795145,61.8624534 63.5914521,52.7410878 52.1655958,52.1433542 C25.565378,50.750823 19.5956257,81.321094 12.1284036,100.464923 C10.6575017,104.234488 14.353676,108.022042 17.8469673,108.089092 C37.0789892,108.460325 56.3134264,108.582979 75.5486686,108.48322 C76.4745237,110.919946 77.4011838,113.356671 78.3278439,115.793396 C80.6384561,121.870491 89.8744639,121.385599 89.9767105,114.192353 C90.0056938,112.171016 90.0145498,110.150497 90.0322618,108.130795 C95.3015846,106.536293 95.3281526,98.1075139 90.078152,96.5890579 Z" id="Stroke-1" stroke="#FF0000" stroke-width="1.473"></path>
                <path d="M176.535191,133.391677 C174.522063,128.479074 172.553849,123.545567 170.495005,118.65226 C168.952677,114.985094 167.350195,111.935421 163.554126,110.288774 C156.668587,107.301011 146.161022,110.413399 139.255433,112.225675 C129.403939,114.812229 120.071368,118.926433 111.500737,124.294919 C122.515192,89.9943367 126.693836,53.6603705 123.650885,17.680176 C123.013261,10.1408177 111.19195,10.0724754 111.835189,17.680176 C115.357761,59.3343868 109.053704,100.98699 93.4122624,139.737056 C91.0606725,145.561425 99.364223,149.211707 103.287015,145.499515 C112.671719,136.615824 123.792045,129.701999 136.044855,125.550809 C141.764223,123.613105 147.697737,122.167465 153.69381,121.434192 C158.218134,120.880218 158.67209,120.798207 160.39568,124.95985 C161.991746,128.813549 163.55974,132.680114 165.141369,136.540246 C167.991027,143.495077 179.427357,140.449424 176.535191,133.391677 Z" id="Stroke-3" stroke="#FF0000" stroke-width="1.473"></path>
                <path d="M221.199268,45.1152443 C221.171494,45.1460503 221.142902,45.1719922 221.115128,45.2036089 C213.817071,53.6541793 202.051464,50.8467805 194.562255,44.1594479 C185.534033,36.0988165 181.032992,24.28715 175.472451,13.8633747 C173.134524,9.48081678 165.499909,10.2639376 164.474717,15.2901786 C160.75707,33.5054382 156.31076,51.5504542 151.173366,69.4090129 C148.34449,53.7846994 146.443597,38.0541864 147.211469,22.062633 C147.580702,14.3797804 135.545523,14.3984262 135.177108,22.062633 C133.984454,46.8930744 139.018105,71.3141204 144.186541,95.4725047 C145.48539,101.543717 154.079028,100.746815 155.791221,95.4725047 C162.324674,75.3448414 167.931778,54.9520844 172.632956,34.3388214 C177.728689,43.6211537 183.689505,52.3424925 193.131071,57.8746004 C201.543361,62.8035594 212.246199,63.8866332 220.965638,60.0229131 L220.965638,150.231779 C220.965638,157.916253 233,157.929224 233,150.231779 L233,46.8371372 C233,39.7777006 222.853461,39.1980615 221.199268,45.1152443 Z" id="Stroke-5" stroke="#FF0000" stroke-width="1.473"></path>
                <path d="M227,13 C219.006325,13 218.993677,25 227,25 C234.993675,25 235.006323,13 227,13 Z" id="Stroke-7" stroke="#FF0000" stroke-width="1.473"></path>
                <path d="M309.554216,11.8582903 C309.097194,5.16476482 300.11919,3.64228714 298.03393,10.2633137 C294.853889,20.3594016 284.238091,25.7552776 276.561086,31.8916202 C270.847521,36.4590532 266.437343,41.7604362 263.091691,47.8364988 C263.086914,40.4627866 263.082136,33.0890745 263.077359,25.7153624 C263.071786,17.9938183 251.342098,17.9807848 251.346875,25.7153624 C251.364392,51.5950392 251.381112,77.4747159 251.398629,103.354393 C250.673286,118.345381 251.096071,133.4553 251.428088,148.205168 C251.601661,155.912864 263.162553,155.950335 263.157776,148.205168 C263.147425,132.726237 263.137075,117.248122 263.12752,101.770006 C263.879934,88.1931543 265.708816,74.7580423 269.744777,61.9460953 C273.536304,49.9088279 281.083528,43.22019 290.708847,36.0248742 C293.589516,33.8710855 296.370658,31.6659774 298.907367,29.2718833 C301.12002,68.4424888 301.780073,107.687222 300.879566,146.918923 C300.702012,154.64454 312.4317,154.642096 312.609253,146.918923 C313.643523,101.87183 312.624381,56.8084459 309.554216,11.8582903 Z" id="Stroke-9" stroke="#FF0000" stroke-width="1.473"></path>
                <path d="M332,5.89367563 L332,41.1060136 C332,48.9580345 344,48.9712869 344,41.1060136 L344,5.89367563 C344,-1.95834527 332,-1.97076936 332,5.89367563 Z" id="Stroke-11" stroke="#FF0000" stroke-width="1.473"></path>
                <path d="M338,65 C330.006325,65 329.993677,77 338,77 C345.993675,77 346.006323,65 338,65 Z" id="Stroke-13" stroke="#FF0000" stroke-width="1.473"></path>
                <path d="M104.84559,76.7650683 L99.5586113,61.3526638 L99.4413887,61.3526638 L93.978975,76.7650683 L104.84559,76.7650683 Z M104.316892,51 L120,93 L110.426024,93 L107.253836,83.6471461 L91.5707284,83.6471461 L88.2813187,93 L79,93 L94.8601381,51 L104.316892,51 Z" id="Fill-15" fill="#000000"></path>
                <polygon id="Fill-17" fill="#000000" points="133.015189 51 133.015189 85.2363007 153 85.2363007 153 93 124 93 124 51"></polygon>
                <polygon id="Fill-19" fill="#000000" points="161.967503 93 148 51 157.735225 51 167.348964 80.5295281 167.469629 80.5295281 177.204033 51 187 51 172.669683 93"></polygon>
                <mask id="mask-2" fill="white">
                    <use xlink:href="#path-1"></use>
                </mask>
                <g id="Clip-22"></g>
                <polygon id="Fill-21" fill="#000000" mask="url('#mask-2')" points="191 93 200 93 200 51 191 51"></polygon>
                <polygon id="Fill-23" fill="#000000" mask="url('#mask-2')" points="216.571953 51 234.85704 79.1767502 234.97949 79.1767502 234.97949 51 244 51 244 93 234.365573 93 216.142127 64.882344 216.019677 64.882344 216.019677 93 207 93 207 51"></polygon>
            </g>
        </g>
    </g>
</svg>