<?xml version="1.0" encoding="UTF-8"?>
<svg width="34px" height="31px" viewBox="0 0 34 31" version="1.1" xmlns="http://www.w3.org/2000/svg" xmlns:xlink="http://www.w3.org/1999/xlink">
    <title>Group 5</title>
    <g id="Page-1" stroke="none" stroke-width="1" fill="none" fill-rule="evenodd">
        <g id="Extra-Small-Devices:-Phones---2-Col-Copy" transform="translate(-15.000000, -20.000000)">
            <g id="Group-5" transform="translate(15.000000, 20.000000)">
                <path d="M24.5735108,24.4892322 C22.7933386,24.4892322 21.0148933,24.4818563 19.2364481,24.4671047 C17.4008193,24.4527313 15.567877,24.4309821 13.7322483,24.4045048 C13.8178316,24.1544834 13.9032231,23.9065425 13.98612,23.6565211 L15.8094677,19.2157107 C15.8436243,19.1506522 15.8802755,19.0882414 15.9169267,19.0256415 C16.1731011,18.590279 16.4904887,18.1475408 16.8614139,17.7290103 C17.922187,16.5248606 19.4058878,15.5268555 21.0503931,15.5266664 C21.1994924,15.5266664 21.349743,15.5347987 21.5015287,15.5518199 C21.6698171,15.5711105 21.8310055,15.6023158 21.9847101,15.6458143 C24.2791501,16.2880779 25.0651354,19.4755665 25.8094804,21.2892614 C26.2489107,22.3549727 26.6858463,23.420684 27.1225901,24.4863953 C26.5271525,24.4888539 25.9340176,24.4888539 25.3383881,24.4888539 C25.083557,24.489043 24.828342,24.4892322 24.5735108,24.4892322 M4.57386929,0 C3.99627755,0 3.43768302,0.10345059 2.95603676,0.454274803 C1.93095534,1.20244762 1.99926852,2.40508437 2.0017631,3.50445966 C2.00905496,6.63899362 2.01634681,9.77352758 2.02613325,12.9080615 C2.02862783,13.9803922 2.91631533,14.5175031 3.80208392,14.5175031 C4.68708494,14.5175031 5.57016706,13.981716 5.56786437,12.9080615 C5.5628752,11.0701587 5.55807793,9.23225594 5.55308877,7.39435314 C5.55308877,6.53081494 5.55059418,5.66481814 5.54829149,4.80109082 C5.54579691,4.47636566 5.49456203,3.85585124 5.48477559,3.34824359 C5.95107058,3.40592628 6.43425197,3.51410496 6.78080701,3.55022756 C7.25439386,3.59845407 8.8530373,3.64649145 10.4127269,3.69452884 L11.8284982,3.84128872 L16.5148588,4.12270459 L17.6498938,4.2238857 C18.1917938,4.27684029 18.7359965,4.33206438 19.2778965,4.38747758 C22.3997702,4.70255744 25.5214521,5.0176373 28.6433258,5.33271716 C28.9728026,10.3461937 29.177934,15.3642093 29.253539,20.3848726 C28.8703328,19.4681906 28.4821374,18.5566151 28.0843475,17.6471198 C26.883494,14.9095562 24.9162281,12.3836219 21.5015287,12.2177605 C21.3330485,12.2090608 21.1672547,12.204711 21.0039555,12.204711 C20.8953453,12.204711 20.7876944,12.2066022 20.6813869,12.2105738 C18.5725054,12.2729846 16.9297271,12.9995973 15.6068309,14.1277194 C14.0765006,15.4268092 12.9756223,17.2597948 12.0798754,19.2157107 L10.3029653,23.6565211 C10.0490935,24.3324487 9.79771641,24.9843577 9.54135011,25.5929573 C9.10211174,26.6371085 10.2052928,27.6857987 11.2499471,27.7026306 C14.2962158,27.7580439 17.3422926,27.7941665 20.3883694,27.8085398 C21.9254158,27.8174287 23.4626542,27.8223459 24.9987412,27.8223459 C25.5335412,27.8223459 26.0681494,27.8217785 26.6027576,27.8206438 C27.2325436,27.8181851 27.8598351,27.8157265 28.4871266,27.8132679 C28.7653685,28.4869261 29.0411158,29.1605842 29.3170549,29.8365118 C29.6350182,30.6107837 30.3922199,31 31.1192947,31 C31.9710985,31 32.7818378,30.4661042 32.7975728,29.3915041 C32.8073593,28.8334004 32.8098539,28.2728382 32.8146511,27.7147346 C34.3889244,27.2744549 34.3964082,24.9410484 32.8292348,24.5200593 C32.8196403,17.6206425 32.5778577,10.7214149 32.0873845,3.83656064 C32.0188794,2.86219603 31.3257693,2.2704284 30.3177662,2.16943641 C23.7616203,1.50542358 12.9903979,0.843869346 6.43425197,0.180045634 C5.8405414,0.120093464 5.19617161,0 4.57386929,0 M24.5735108,24.9703625 L25.3383881,24.9697951 C25.9345933,24.9697951 26.5284958,24.9697951 27.1247009,24.9675257 L27.8450595,24.9644997 L27.5752608,24.3061605 C27.1381333,23.2402601 26.7011976,22.1741706 26.2619592,21.1088376 C26.146249,20.8268543 26.0276604,20.5057225 25.9019718,20.1656783 C25.2197995,18.3188867 24.2856744,15.7897373 22.1188419,15.183218 C21.9403833,15.1329112 21.7515626,15.0962212 21.5566014,15.0739046 C21.3892725,15.0551814 21.2190653,15.0457252 21.0502013,15.0457252 C18.8996795,15.0457252 17.2718686,16.5293996 16.4939427,17.4124175 C16.1149581,17.8400259 15.7787652,18.3014874 15.4941909,18.7850763 C15.4538938,18.8539173 15.4137886,18.9227583 15.376178,18.994247 L15.365624,19.0142941 L15.3569889,19.0352868 L13.5336412,23.4759081 L13.5275006,23.4912271 L13.5223196,23.5069244 C13.4561172,23.7062606 13.3885716,23.9038947 13.3204503,24.1024745 L13.2697911,24.2511256 L13.0564084,24.8759898 L13.7251483,24.8856352 C15.7058466,24.9141928 17.5073188,24.9346182 19.2322265,24.9482351 C21.0033799,24.9627976 22.8004385,24.9703625 24.5735108,24.9703625 M4.57386929,0.481130349 C4.96878085,0.481130349 5.39074903,0.535597936 5.79870917,0.58836341 C5.99175146,0.613138597 6.19131804,0.639048525 6.38436033,0.658528253 C9.6685738,0.99100748 14.075925,1.3282148 18.3383985,1.65426382 C22.5947314,1.9799346 26.9959421,2.31657455 30.2682583,2.64791903 C30.7370479,2.6950108 31.5335872,2.91609625 31.6003652,3.87022463 C32.0822034,10.6306356 32.3314697,17.578468 32.3412562,24.5208158 L32.3418319,24.8877155 L32.7008598,24.9841685 C33.2953379,25.1437888 33.5096801,25.6631221 33.5119981,26.0958368 C33.5140936,26.5213649 33.2980244,27.0794685 32.6814788,27.2519492 L32.3297427,27.3502934 L32.3266725,27.7105738 L32.3232184,28.1300499 C32.3201482,28.5478239 32.316886,28.9661652 32.3095942,29.3845065 C32.2973132,30.2219457 31.660619,30.5190588 31.1192947,30.5190588 C30.6600996,30.5190588 30.0310811,30.2930561 29.7699176,29.6570336 C29.4937865,28.9803495 29.2176554,28.3061239 28.9392217,27.6318984 L28.8070088,27.3310028 L28.4773402,27.3323267 L26.6016062,27.3395134 C26.0673818,27.3408373 25.5331574,27.3414046 24.9987412,27.3414046 C23.5255944,27.3414046 21.9754994,27.3366765 20.390864,27.3275986 C17.4209679,27.3134144 14.348602,27.2778591 11.2580065,27.2216894 C10.8231816,27.2146919 10.3449894,26.9478385 10.0951474,26.5724282 C9.97291284,26.3887892 9.85566747,26.1016997 9.99229382,25.7773528 C10.2759086,25.1036946 10.5506965,24.3825665 10.7588981,23.8282453 L12.5296677,19.402943 C13.5683734,17.1374318 14.6475681,15.5769733 15.9263293,14.4915932 C17.2822307,13.3351026 18.842496,12.7463609 20.6992327,12.6911368 C20.7997836,12.6875435 20.9012939,12.6858414 21.0039555,12.6858414 C21.158044,12.6858414 21.3169297,12.6900021 21.4773505,12.6981344 C24.1617129,12.8286296 26.1763759,14.5099381 27.6360903,17.8377564 C28.0073992,18.6859756 28.3886866,19.579017 28.8022115,20.5681333 L29.779704,22.9057006 L29.7415177,20.3776859 C29.6666802,15.403547 29.4609731,10.331253 29.130345,5.30170089 L29.1036722,4.8956526 L28.6930256,4.85423454 L23.7704472,4.35740693 L19.3281719,3.90899496 C18.7855044,3.85358176 18.2405341,3.79816855 17.6938368,3.74464658 L16.5588019,3.6436546 L16.5517019,3.64308723 L16.5446019,3.64270898 L11.8687953,3.36186049 L10.4637699,3.21623534 L10.445924,3.21434411 L10.4280782,3.21377674 L10.2724546,3.20904865 C8.79700514,3.16346987 7.27128026,3.11656722 6.8320419,3.07193406 C6.67430754,3.05548031 6.47167071,3.02011421 6.25713663,2.98266774 C6.0376134,2.94446478 5.78892273,2.90096636 5.54560502,2.87089571 L4.98605103,2.80148737 L4.99679693,3.35732152 C5.00197798,3.63022683 5.01886438,3.93377015 5.03363999,4.20156912 C5.04668857,4.4374062 5.05916148,4.66038288 5.06012094,4.8026038 C5.06261552,5.66576375 5.0651101,6.53119319 5.0651101,7.395677 L5.07048305,9.46279756 L5.07969381,12.9091963 C5.08046138,13.2233305 4.98106187,13.4811059 4.78437365,13.6753358 C4.55199372,13.9047427 4.19411711,14.0363727 3.80208392,14.0363727 C3.32465926,14.0363727 2.51622272,13.7986444 2.51411192,12.9067377 C2.50451737,9.77901216 2.49722551,6.65147577 2.48993366,3.52375026 L2.48974177,3.50351404 L2.4889742,3.31476872 C2.48340937,2.33075881 2.47822831,1.40140562 3.24617586,0.841032493 C3.58332825,0.595360982 4.00529643,0.481130349 4.57386929,0.481130349" id="Fill-1" fill="#FF0000"></path>
                <path d="M26.2862774,28.1374046 C24.2068035,28.1421162 22.1246305,28.1374046 20.0426503,28.1253429 L20.6950645,30 L27,30 L26.2862774,28.1374046 Z M21.6465019,16.0049978 C21.492074,15.9618394 21.3301272,15.9305543 21.1610471,15.9115194 C19.3291204,15.7077892 17.6614541,16.7720486 16.4991003,18.0809351 L17.0190652,19.5624551 L9.86313783,19.5624551 L13.4606701,9.65468404 L13.5391371,9.65468404 L15.2386145,14.4923811 C16.5677349,13.3680015 18.2182426,12.6441091 20.3370464,12.5817273 L17.29129,4.62286843 L16.6708796,3 L10.4444111,3 L10.020072,4.09554456 L0,30 L6.11117776,30 L8.2789512,23.9877917 L18.6055653,23.9877917 L18.8853091,24.7957393 C20.9279594,24.8123242 22.9708025,24.8196743 25.015959,24.8172243 L21.6465019,16.0049978 Z" id="Fill-3" fill="#FFFFFF"></path>
            </g>
        </g>
    </g>
</svg>